<?xml version="1.0" encoding="UTF-8"?>
<svg width="157px" height="57px" viewBox="0 0 157 57" version="1.1" xmlns="http://www.w3.org/2000/svg" xmlns:xlink="http://www.w3.org/1999/xlink">
    <title>7F14617B-AA25-41FB-A657-7DB9578E4FE1</title>
    <g id="LOT-1---Homepage-EXPORTÉ" stroke="none" stroke-width="1" fill="none" fill-rule="evenodd">
        <g id="Lot-1---0.2-Homepage---Murex" transform="translate(-120.000000, -16.000000)" fill-rule="nonzero">
            <g id="logo/logo" transform="translate(119.999881, 16.000000)">
                <g id="Group" transform="translate(76.029534, 19.268375)" fill="#333333">
                    <path d="M34.2369179,0.237125 L31.9892012,0.237125 C31.7284068,0.237125 31.5391346,0.450625 31.5391346,0.688625 L31.5391346,10.418625 C31.5391346,12.41275 30.143579,14.00175 28.0842623,14.00175 C26.0249457,14.00175 24.6555568,12.41275 24.6555568,10.394125 L24.6555568,0.688625 C24.6555568,0.450625 24.4645401,0.237125 24.2046179,0.237125 L21.9569012,0.237125 C21.720529,0.237125 21.508579,0.450625 21.508579,0.688625 L21.508579,10.56125 C21.508579,14.168875 24.3712123,17.087875 28.0842623,17.087875 C31.8226068,17.087875 34.6861123,14.168875 34.6861123,10.56125 L34.6861123,0.688625 C34.6861123,0.450625 34.4732901,0.237125 34.2369179,0.237125" id="Path"></path>
                    <path d="M45.7075123,7.8085 L41.8514179,7.8085 L41.8514179,3.08525 L45.7075123,3.08525 C46.9608957,3.08525 48.049429,4.13 48.049429,5.387375 C48.049429,6.717375 46.9608957,7.8085 45.7075123,7.8085 M51.1257568,5.340125 C51.1257568,2.51475 48.8073901,0.238 45.9683068,0.238 L39.2016068,0.238 C38.9416846,0.238 38.7515401,0.450625 38.7515401,0.68775 L38.7515401,16.39925 C38.7515401,16.63725 38.9416846,16.851625 39.2016068,16.851625 L41.3786735,16.851625 C41.6150457,16.851625 41.8269957,16.63725 41.8269957,16.39925 L41.8269957,10.34775 L44.454129,10.34775 L47.6002346,16.63725 C47.6473346,16.732625 47.7650846,16.851625 47.978779,16.851625 L50.4628679,16.851625 C50.8649623,16.851625 51.0306846,16.471 50.8649623,16.163 L47.6237846,10.13425 C49.682229,9.303875 51.1257568,7.52325 51.1257568,5.340125" id="Shape"></path>
                    <path d="M64.5832735,0.237125 L54.9539401,0.237125 C54.6948901,0.237125 54.5056179,0.450625 54.5056179,0.688625 L54.5056179,16.400125 C54.5056179,16.63725 54.6948901,16.85075 54.9539401,16.85075 L64.5832735,16.85075 C64.8440679,16.85075 65.0324679,16.63725 65.0324679,16.400125 L65.0324679,14.454125 C65.0324679,14.216125 64.8440679,14.00175 64.5832735,14.00175 L57.5802012,14.00175 L57.5802012,9.849 L63.4240901,9.849 C63.6604623,9.849 63.8741568,9.66 63.8741568,9.398375 L63.8741568,7.42875 C63.8741568,7.19075 63.6604623,6.976375 63.4240901,6.976375 L57.5802012,6.976375 L57.5802012,3.084375 L64.5832735,3.084375 C64.8440679,3.084375 65.0324679,2.87175 65.0324679,2.63375 L65.0324679,0.688625 C65.0324679,0.450625 64.8440679,0.237125 64.5832735,0.237125" id="Path"></path>
                    <path d="M80.5030735,16.186625 L75.5819957,8.33 L80.3382235,0.90125 C80.5266235,0.59325 80.3382235,0.237125 79.9352568,0.237125 L77.1903735,0.237125 C77.0011012,0.237125 76.8598012,0.35525 76.8127012,0.4515 L73.7363735,5.48275 L73.7128235,5.48275 L70.6853401,0.4515 C70.6138179,0.35525 70.4951957,0.237125 70.3076679,0.237125 L67.5627846,0.237125 C67.1598179,0.237125 66.9705457,0.59325 67.1598179,0.90125 L71.8916235,8.33 L66.9705457,16.186625 C66.7821457,16.494625 66.9705457,16.851625 67.3961901,16.851625 L69.950929,16.851625 C70.1410735,16.851625 70.2823735,16.732625 70.3530235,16.63725 L73.6892735,11.2035 L73.7607957,11.2035 L77.1441457,16.63725 C77.1903735,16.732625 77.3569679,16.851625 77.5453679,16.851625 L80.100979,16.851625 C80.5030735,16.851625 80.6923457,16.519125 80.5030735,16.186625" id="Path"></path>
                    <path d="M15.7161512,0.356125 C15.6934735,0.165375 15.5513012,0 15.2905068,0 L14.9119623,0 C14.6982679,0 14.5805179,0.0945 14.5089957,0.23625 L9.30444568,9.396625 L9.23379568,9.396625 L4.02837346,0.23625 C3.95772346,0.0945 3.81555124,0 3.62627902,0 L3.24860679,0 C2.98781235,0 2.84564013,0.165375 2.82209013,0.356125 L0.00742901591,16.3065 C-0.0405432063,16.636375 0.147856794,16.851625 0.455751238,16.851625 L2.5857179,16.851625 C2.79941235,16.851625 2.98781235,16.66175 3.01136235,16.49375 L4.3833679,7.499625 L4.45489013,7.499625 L8.64242902,14.784 C8.73575679,14.914375 8.83082902,15.045625 9.04452346,15.045625 L9.46755124,15.045625 C9.68037346,15.045625 9.77544568,14.914375 9.86964568,14.784 L14.0127012,7.499625 L14.0833512,7.499625 L15.479779,16.49375 C15.526879,16.66175 15.7161512,16.851625 15.9289735,16.851625 L18.0816179,16.851625 C18.3895123,16.851625 18.5787846,16.636375 18.5081346,16.3065 L15.7161512,0.356125 Z" id="Path"></path>
                </g>
                <path d="M63.7333963,27.5695 C62.2951019,27.1775 60.1302463,27.990375 59.7804852,27.8775 C59.1219574,27.713875 59.0992797,25.18775 59.0504352,24.233125 C59.0390963,24.024 58.8245297,11.629625 58.6718908,8.561875 C58.5613832,6.23523211 58.4005657,3.91126852 58.1895519,1.591625 C58.1642574,1.32475 58.1014574,0.41825 57.8572352,0.209125 C57.7185519,0.091 57.5083463,0 57.1786463,0 C56.9553574,0 56.7373019,0.046375 56.5497741,0.114625 C56.1485519,0.26075 55.9182852,0.622125 55.7830908,0.8085 C53.5345019,3.91125 38.5872297,24.026625 37.391413,25.354875 C37.391413,25.354875 38.5148352,19.74875 39.0835241,14.13125 C39.5623741,9.40975 39.5257408,4.699625 39.3033241,3.126375 C39.2570963,2.869125 39.1611519,2.783375 38.8951241,2.783375 C38.616013,2.783375 38.2610186,2.8875 37.9374241,3.052 C37.1707408,3.444875 36.4869186,4.1475 36.182513,4.430125 C26.346463,13.572125 16.9927519,24.924375 8.65517967,37.653875 C6.19376856,41.804 3.79864634,46.24025 1.50470189,50.990625 C0.997068559,52.03975 0.313246337,53.682125 0.151885226,54.198375 C0.102226938,54.3516158 0.0671808623,54.5092394 0.0472185594,54.669125 C-0.0827425517,55.342 0.0576852261,55.799625 0.442335226,55.986875 C0.879318559,56.19775 1.42707411,55.817125 1.77421856,55.17575 C1.78555745,55.155625 1.80125745,55.136375 1.81085189,55.118 C11.9033352,34.442625 22.3874463,23.030875 34.5392463,13.412875 L35.2754019,12.830125 C35.3117638,14.3355632 35.1756779,15.840211 34.8698186,17.3145 C34.5218019,18.89825 33.9880019,20.77775 33.3608741,22.97925 C32.6404186,25.5115 31.8222741,28.38325 31.0320408,31.70475 C30.6613463,33.25875 29.125363,39.8405 30.6369241,40.40925 C31.4829797,40.72775 33.6417297,39.37325 35.2021352,38.3145 C39.7062908,35.259875 48.0961963,27.29475 53.8118686,21.9765 L53.9174074,30.08075 C53.9060686,30.737875 53.6775463,37.421125 54.7058963,38.11325 C55.4062908,38.577 58.9169852,36.008 62.3369686,34.95275 C63.8877797,34.475 64.9274686,34.545875 65.4848186,34.320125 C65.7002574,34.232625 65.8616186,34.045375 65.8781908,33.551875 C65.9296519,32.081875 65.3321797,28.00525 63.7333963,27.5695" id="Path" fill="#E60A5B"></path>
            </g>
        </g>
    </g>
</svg>