<svg xmlns="http://www.w3.org/2000/svg" viewBox="0 0 435.3 195.1"><defs><style>.cls-1{fill:#8025ff;}.cls-2{fill:#7536ff;}.cls-3{fill:#000d5e;}.cls-4{fill:none;stroke:#7536ff;stroke-miterlimit:10;}</style></defs><g id="Calque_2" data-name="Calque 2"><g id="Calque_1-2" data-name="Calque 1"><path class="cls-1" d="M112.67,111.89c0,14.48-11.24,23.4-25.24,23.43-.47,0-.92,0-1.37,0l-.39,0h-.12q-.63,0-1.26-.09h-.08c-.48,0-1-.12-1.43-.19h-.07l-.46-.07q-.5-.07-1-.18c-.65-.13-1.29-.29-1.93-.47a25.35,25.35,0,0,1-2.71-.91l-.88-.37-.86-.4-.84-.44a.2.2,0,0,0-.08,0c-.52-.29-1-.59-1.54-.91l-.09,0c.13-.2.27-.38.4-.56a5.34,5.34,0,0,1,.72-.88,3.21,3.21,0,0,1,.27-.41c.25-.32.45-.59.65-.88l.64-.83s0,0,0-.06c.29-.46.61-.89.91-1.29s.81-1.07,1.22-1.61c.06-.07.13-.13.2-.22a1.53,1.53,0,0,1,.2-.34,9.85,9.85,0,0,1,.74-.91,1.61,1.61,0,0,1,.27-.39c.22-.32.43-.64.63-.88a3.37,3.37,0,0,1,.34-.43l.06,0a5.74,5.74,0,0,0,.66.43,6,6,0,0,0,.56.3h0a2.22,2.22,0,0,0,.41.2h0l.41.17h0a2.55,2.55,0,0,0,.53.18h0l0,0,.18,0,.39.11.64.16h.06l.15,0c.24,0,.49.09.74.12l.59.07h.08l.26,0h0a3.59,3.59,0,0,0,.47,0H86l.89,0c7.12,0,12.35-4,12.33-11.54l0-15.77c0-.15,0-.3,0-.45a2.08,2.08,0,0,0,0-.43.55.55,0,0,0,0-.18c.07-.08.14-.17.21-.24a1.57,1.57,0,0,1,.27-.4c.22-.3.43-.62.63-.89.45-.61.88-1.17,1.34-1.76,0,0,.07,0,.07-.07a3.34,3.34,0,0,0,.23-.34c.38-.49.74-1,1.15-1.52a2.16,2.16,0,0,0,.25-.32c0-.13.14-.22.2-.34.21-.29.43-.56.7-.88.07-.14.19-.27.28-.41s.45-.61.65-.88.43-.56.7-.88c.07-.14.19-.27.28-.41a7.87,7.87,0,0,0,.66-.89q.3-.41.63-.81s0,0,0-.07c.29-.43.61-.88.9-1.29,0,0,.05-.07.07-.09l.08.11a.25.25,0,0,1,0,.07c.29.4.56.81.82,1.23a19.89,19.89,0,0,1,1.29,2.47c.1.22.2.45.29.69s.26.68.38,1c.05.13.09.26.13.39.15.45.28.9.39,1.37.08.28.14.56.2.85a1.59,1.59,0,0,1,.06.3c0,.11.05.21.07.32s0,.31.08.47,0,.11,0,.17a2,2,0,0,1,0,.26c.08.54.14,1.09.18,1.66a2.64,2.64,0,0,1,0,.28,2.83,2.83,0,0,1,0,.29.66.66,0,0,1,0,.14c0,.48,0,1,0,1.43Z"/><path class="cls-1" d="M173.69,74.18l-21.37,58.9a20.92,20.92,0,0,1-6.39.83,20.32,20.32,0,0,1-6.3-.81L118.06,74.27l13.87,0L145.88,114,159.82,74.2Z"/><path class="cls-1" d="M217.78,118.6a18,18,0,0,1-11.6,4.64c-8.09,0-13.41-2.33-13.43-10.77v-.11a35.78,35.78,0,0,0,9.6,1.27c12.94,0,27.06-4.52,27-20,0-9.71-5-16-12.38-19.08-.46-.19-.93-.37-1.41-.53a31.32,31.32,0,0,0-10.21-1.58c-14.34,0-26.09,8.57-26.06,23.53l0,14.95a31.84,31.84,0,0,0,1.39,9.77c.2.57.4,1.12.63,1.65,3.7,8.94,12.45,12.75,25.08,12.73a29,29,0,0,0,19.81-8A31.93,31.93,0,0,0,217.78,118.6ZM192.72,96.82c0-8.32,5.33-12.47,13.51-12.49a13.88,13.88,0,0,1,1.59.08,10.92,10.92,0,0,1,1.65.26c3.89.84,6.73,3.39,6.73,8.18,0,7.26-8.3,9-14.21,9a34.52,34.52,0,0,1-5.15-.31c-.53-.07-1.06-.17-1.58-.29a15.94,15.94,0,0,1-2.54-.8Z"/><path class="cls-1" d="M291.23,109.9v1.15c-.34.5-.73,1-1.09,1.47-.11.14-.23.29-.36.43a13.69,13.69,0,0,1-1.29,1.71.76.76,0,0,1-.21.27,15.66,15.66,0,0,1-1.7,2.3.4.4,0,0,1-.16.25,16.13,16.13,0,0,1-1.26,1.66,8.6,8.6,0,0,1-1.11,1.49c-.07.12-.14.21-.21.32a6,6,0,0,1-.41.5c-.46.68-.93,1.33-1.43,2a12.65,12.65,0,0,1-1.29,1.72,1.89,1.89,0,0,1-.2.27,3,3,0,0,1-.41.55,9.54,9.54,0,0,1-1.06,1.42.19.19,0,0,1-.07.11c-.3.44-.6.85-.89,1.26v-1.2l-.07-31c0-7.23-3.43-12.11-10.55-12.08-7.73,0-12.95,4.64-12.92,12.6l.07,35.83-13.17,0-.12-59.55c4.63,1.4,7.24,2.94,9,4.6,5.1-4.29,10.91-5.6,17.91-5.6,15.31,0,22.93,9.93,22.95,24.16Z"/><path class="cls-1" d="M319.17,73.68c-.21.32-.46.61-.66.93s-.57.77-.91,1.16-.52.7-.79,1.08c-.14.16-.27.37-.43.55a2.07,2.07,0,0,0-.27.41c-.34.43-.66.88-.95,1.29-.14.2-.32.36-.48.56s-.11.14-.18.25c-.34.48-.68,1-1,1.45a10.71,10.71,0,0,1-.8,1c-.27.45-.61.86-.9,1.29a3.87,3.87,0,0,1-.46.54l0,0a5.58,5.58,0,0,1-.45.61,12.68,12.68,0,0,1-.77,1c-.12.11-.18.25-.27.34-.46.68-.93,1.34-1.41,2-.14.16-.27.36-.43.54l-.05,0-.61.79c-.2.32-.41.59-.61.86a2.38,2.38,0,0,1-.29.37c-.05.06-.07.11-.12.18-.4.56-.84,1.15-1.29,1.74-.07.07-.13.16-.2.23-.41.56-.8,1.13-1.23,1.68C304,84.06,310.06,76.61,319.17,73.68Z"/><path class="cls-2" d="M112.62,96.12c0-.48,0-1,0-1.43a.66.66,0,0,0,0-.14,2.83,2.83,0,0,0,0-.29,2.64,2.64,0,0,0,0-.28c0-.57-.1-1.12-.18-1.66a2,2,0,0,0,0-.26c0-.06,0-.11,0-.17s0-.32-.08-.47,0-.21-.07-.32a1.59,1.59,0,0,0-.06-.3c-.06-.29-.12-.57-.2-.85-.11-.47-.24-.92-.39-1.37,0-.13-.08-.26-.13-.39-.12-.35-.24-.69-.38-1s-.19-.47-.29-.69A19.89,19.89,0,0,0,109.39,84c-.26-.42-.53-.83-.82-1.23a.25.25,0,0,0,0-.07l-.08-.11s0,.07-.07.09c-.29.41-.61.86-.9,1.29,0,0,0,0,0,.07q-.33.4-.63.81a7.87,7.87,0,0,1-.66.89c-.09.14-.21.27-.28.41-.27.32-.49.59-.7.88s-.41.59-.65.88-.21.27-.28.41c-.27.32-.49.59-.7.88-.06.12-.18.21-.2.34a2.16,2.16,0,0,1-.25.32c-.41.5-.77,1-1.15,1.52a3.34,3.34,0,0,1-.23.34s-.07.07-.07.07c-.46.59-.89,1.15-1.34,1.76-.2.27-.41.59-.63.89a1.57,1.57,0,0,0-.27.4c-.07.07-.14.16-.21.24a.55.55,0,0,1,0,.18,2.08,2.08,0,0,1,0,.43c0,.15,0,.3,0,.45l0,15.77c0,7.59-5.21,11.54-12.33,11.54l-.89,0h-.09a3.59,3.59,0,0,1-.47,0h0l-.26,0H85.1l-.59-.07c-.25,0-.5-.07-.74-.12l-.15,0h-.06c-.22,0-.44-.1-.64-.16l-.39-.11-.18,0,0,0h0a4.72,4.72,0,0,1-.53-.18h0l-.41-.17h0l-.41-.2h0a6,6,0,0,1-.56-.3,7.48,7.48,0,0,1-.66-.43l-.06,0a3.37,3.37,0,0,0-.34.43c-.2.24-.41.56-.63.88a1.61,1.61,0,0,0-.27.39,9.85,9.85,0,0,0-.74.91,1.53,1.53,0,0,0-.2.34c-.07.09-.14.15-.2.22-.41.54-.82,1.06-1.22,1.61s-.62.83-.91,1.29c0,0,0,0,0,.06l-.64.83c-.2.29-.4.56-.65.88a3.21,3.21,0,0,0-.27.41,5.34,5.34,0,0,0-.72.88c-.13.18-.27.36-.4.56l.09,0c.5.32,1,.62,1.54.91a.2.2,0,0,1,.08,0l.84.44.86.4.88.37a25.35,25.35,0,0,0,2.71.91c.64.18,1.28.34,1.93.47q.49.1,1,.18l.46.07h.07c.47.07,1,.14,1.43.19h.08q.63.06,1.26.09h.12l.39,0c.45,0,.9,0,1.37,0,14,0,25.26-8.95,25.24-23.43Z"/><path class="cls-2" d="M173.69,74.18l-21.37,58.9a20.92,20.92,0,0,1-6.39.83,20.32,20.32,0,0,1-6.3-.81L118.06,74.27l13.87,0L145.88,114,159.82,74.2Z"/><path class="cls-2" d="M217.78,118.6a18,18,0,0,1-11.6,4.64c-8.09,0-13.41-2.33-13.43-10.77v-.11a35.78,35.78,0,0,0,9.6,1.27c12.94,0,27.06-4.52,27-20,0-9.71-5-16-12.38-19.08-.46-.19-.93-.37-1.41-.53a31.32,31.32,0,0,0-10.21-1.58c-14.34,0-26.09,8.57-26.06,23.53l0,14.95a31.84,31.84,0,0,0,1.39,9.77c.2.57.4,1.12.63,1.65,3.7,8.94,12.45,12.75,25.08,12.73a29,29,0,0,0,19.81-8A31.93,31.93,0,0,0,217.78,118.6ZM192.72,96.82c0-8.32,5.33-12.47,13.51-12.49a13.88,13.88,0,0,1,1.59.08,10.92,10.92,0,0,1,1.65.26c3.89.84,6.73,3.39,6.73,8.18,0,7.26-8.3,9-14.21,9a34.52,34.52,0,0,1-5.15-.31c-.53-.07-1.06-.17-1.58-.29a15.94,15.94,0,0,1-2.54-.8Z"/><path class="cls-2" d="M291.23,109.9v1.15c-.34.5-.73,1-1.09,1.47-.11.14-.23.29-.36.43a13.69,13.69,0,0,1-1.29,1.71.76.76,0,0,1-.21.27,15.66,15.66,0,0,1-1.7,2.3.4.4,0,0,1-.16.25,16.13,16.13,0,0,1-1.26,1.66,8.6,8.6,0,0,1-1.11,1.49c-.07.12-.14.21-.21.32a6,6,0,0,1-.41.5c-.46.68-.93,1.33-1.43,2a12.65,12.65,0,0,1-1.29,1.72,1.89,1.89,0,0,1-.2.27,3,3,0,0,1-.41.55,9.54,9.54,0,0,1-1.06,1.42.19.19,0,0,1-.07.11c-.3.44-.6.85-.89,1.26v-1.2l-.07-31c0-7.23-3.43-12.11-10.55-12.08-7.73,0-12.95,4.64-12.92,12.6l.07,35.83-13.17,0-.12-59.55c4.63,1.4,7.24,2.94,9,4.6,5.1-4.29,10.91-5.6,17.91-5.6,15.31,0,22.93,9.93,22.95,24.16Z"/><path class="cls-2" d="M318.17,73.68c-.1.16-.22.31-.33.47a4.84,4.84,0,0,0-.33.46,14.23,14.23,0,0,1-.9,1.15c-.25.37-.53.71-.81,1.1-.13.16-.27.36-.43.54a2.41,2.41,0,0,0-.27.41c-.34.43-.65.88-1,1.29-.13.2-.31.36-.47.56s-.11.14-.18.25c-.34.48-.68,1-1,1.46-.25.34-.52.65-.79.95-.29.45-.62.86-.92,1.29a3.22,3.22,0,0,1-.45.54l0,0a5.74,5.74,0,0,1-.46.61,12.09,12.09,0,0,1-.76,1c-.12.11-.19.24-.28.33-.45.68-.92,1.34-1.4,2-.13.16-.27.36-.44.54l0,0c-.21.25-.41.52-.61.79s-.41.59-.61.86a2.4,2.4,0,0,1-.3.37l-.11.18q-.61.85-1.29,1.74c-.07.07-.13.16-.2.23l-.11.15c-.37.51-.72,1-1.11,1.52C303,84.09,309,76.65,318.1,73.71h0Z"/><path class="cls-3" d="M26.93,72.7c-7,0-12.81,1.33-17.91,5.6-1.78-1.65-4.39-3.19-9-4.6l.11,59.55,13.16,0L13.21,97.4c0-8,5.2-12.59,12.91-12.6,7.12,0,10.56,4.84,10.58,12.08l.06,36.31,13.17,0-.06-36.3C49.84,82.62,42.23,72.67,26.93,72.7Z"/><path class="cls-3" d="M87.31,72.59c-13.87,0-25.13,9.07-25.11,23.55l0,15.77c0,8.57,4,15.18,10.08,19.13l.41-.55a5.75,5.75,0,0,1,.7-.88,4.81,4.81,0,0,1,.27-.41c.25-.32.46-.59.66-.88s.41-.55.63-.82c0,0,0,0,0-.07.29-.45.61-.88.91-1.29s.81-1.06,1.22-1.61a1.42,1.42,0,0,0,.2-.22,1.23,1.23,0,0,1,.21-.34,8.18,8.18,0,0,1,.72-.91,2.28,2.28,0,0,1,.27-.39c.23-.31.44-.63.64-.88s.23-.29.34-.45c-2.56-1.86-3.9-5-3.92-9.45l0-15.77c0-7.62,4.6-11.4,11.71-11.42,6.91,0,11.42,3.42,11.85,10.31a2.4,2.4,0,0,0,.21-.23,1.93,1.93,0,0,1,.27-.41c.23-.29.43-.61.63-.88l1.34-1.77s.07,0,.07-.07a2.22,2.22,0,0,0,.22-.34c.39-.5.75-1,1.16-1.52a1.7,1.7,0,0,0,.25-.31c0-.14.14-.23.2-.34a10.22,10.22,0,0,1,.71-.89,3.12,3.12,0,0,1,.27-.4c.25-.3.45-.62.65-.89s.44-.57.71-.88a4.81,4.81,0,0,1,.27-.41,9.17,9.17,0,0,0,.66-.88c.2-.28.4-.55.63-.82,0,0,0,0,0-.07.29-.43.61-.88.9-1.29,0,0,.05-.07.07-.09C104,76.2,96.19,72.57,87.31,72.59Z"/><path class="cls-3" d="M290.14,112.45a4.82,4.82,0,0,1-.36.43,13.83,13.83,0,0,1-1.29,1.7.83.83,0,0,1-.21.28,15.54,15.54,0,0,1-1.7,2.31.4.4,0,0,1-.16.25,15.82,15.82,0,0,1-1.27,1.65,8.54,8.54,0,0,1-1.11,1.5c-.06.11-.13.2-.2.31s-.25.34-.41.5a23.87,23.87,0,0,1-1.43,2,12.65,12.65,0,0,1-1.29,1.72,2.1,2.1,0,0,1-.2.27,2.71,2.71,0,0,1-.41.55A10.39,10.39,0,0,1,279,127.3s0,.06-.07.11c-.3.43-.59.84-.89,1.25v4.12l13.17,0,0-21.78C290.89,111.48,290.5,112,290.14,112.45Z"/><path class="cls-3" d="M348.37,125.3c-4.74,6-13.14,9.52-20.85,9.52-14.47,0-24.94-8.73-24.94-23.32L302.53,97V95.71c0-.33,0-.68,0-1h0s0-.1,0-.14c.39-.49.74-1,1.11-1.52l.11-.15c.07-.07.13-.16.2-.23q.67-.89,1.29-1.74l.11-.18a2.4,2.4,0,0,0,.3-.37c.2-.27.4-.54.61-.86s.4-.54.61-.79l0,0c.17-.18.31-.38.44-.54.48-.61.95-1.27,1.4-2,.09-.09.16-.22.28-.33a12.09,12.09,0,0,0,.76-1,5.74,5.74,0,0,0,.46-.61l0,0a3.22,3.22,0,0,0,.45-.54c.3-.43.63-.84.92-1.29.27-.3.54-.61.79-.95.36-.49.7-1,1-1.46.07-.11.13-.18.18-.25s.34-.36.47-.56c.3-.41.61-.86,1-1.29a2.41,2.41,0,0,1,.27-.41c.16-.18.3-.38.43-.54.28-.39.56-.73.81-1.1a14.23,14.23,0,0,0,.9-1.15,4.84,4.84,0,0,1,.33-.46c.11-.16.23-.31.33-.47l-.05,0h0a.27.27,0,0,1,.07-.08l0,0,.18,0h0c.69-.22,1.4-.42,2.13-.58h0a31.41,31.41,0,0,1,6.91-.75c7.82,0,15.43,2.8,20.89,9.56a29.58,29.58,0,0,1-10.65,8c-3-3.77-6.66-5.43-10.22-5.43-7.12,0-11.63,4-11.6,11.53l0,15.41c0,7.84,4.87,11.73,12.13,11.73,3.42,0,7.23-1.92,9.94-5.84C342,118.78,346.24,121.38,348.37,125.3Z"/><path class="cls-3" d="M366.8,47.22a7.93,7.93,0,0,0-8.05,7.84,8.08,8.08,0,0,0,16.14,0A8,8,0,0,0,366.8,47.22Z"/><rect class="cls-3" x="360.39" y="73.78" width="13.05" height="58.85" transform="translate(-0.16 0.57) rotate(-0.09)"/><path class="cls-3" d="M435.23,94.66c0-16.13-11.08-22.63-26.38-22.6a31.54,31.54,0,0,0-20.39,7.63,41.1,41.1,0,0,0,8.21,8.16,19,19,0,0,1,12.54-4.54c7.26,0,12.36,3,12.72,10.42a35.07,35.07,0,0,0-10.31-1.4c-13.42,0-26.22,6.93-26.2,21.65,0,13.15,11.2,20.73,23.55,20.7a27.5,27.5,0,0,0,17.29-6,29.33,29.33,0,0,0,9,5ZM422.09,113c0,6.31-6,9.74-11.71,9.74s-11.54-2.69-11.54-9.22c0-7.83,7.57-9.63,14.09-9.63a21.84,21.84,0,0,1,9.16,1.89Z"/><path class="cls-4" d="M325.36,64.5h0a40.67,40.67,0,0,0-65.58-48.1h0l-.23.31-.23.31L178.48,125.06h0a40.68,40.68,0,1,0,65.43,48.32h0L324.09,66.2c.35-.45.69-.9,1-1.37Z"/><path class="cls-4" d="M220.36,68.42h0a40.68,40.68,0,0,0-65.59-48.1h0l-.24.31-.22.3L73.48,129h0a40.68,40.68,0,1,0,65.42,48.32h0l80.17-107.2c.34-.45.68-.9,1-1.36Z"/></g></g></svg>